<svg width="284" height="34" viewBox="0 0 284 34" fill="none" xmlns="http://www.w3.org/2000/svg">
<path d="M236.035 32.7586C237.586 32.8175 239.843 32.8742 242.365 32.8357C242.591 32.8855 242.41 32.5614 242.408 32.4163C237.722 32.0808 237.41 31.7069 236.035 30.6279L236.062 31.4915L236.035 32.7586Z" fill="white" stroke="white" stroke-width="0.473597"/>
<path d="M251.74 1.26001C250.141 1.29628 247.751 1.26001 245.245 1.26001C245.255 1.38144 245.255 1.50351 245.245 1.62494C249.928 1.9604 250.395 2.40693 251.761 3.48586V2.64267L251.74 1.26001Z" fill="white" stroke="white" stroke-width="0.473597"/>
<path d="M29.3602 32.7601V32.8961H23.2432V32.7601C24.4213 32.7601 25.5088 31.9894 24.6479 29.4485L21.4761 20.1983H8.64851L5.98422 27.7259C4.53427 31.9441 5.8936 32.7601 7.65846 32.7601V32.8961H1V32.7601C2.81244 32.7601 3.87725 31.9645 5.37252 27.7463L15.0714 1.11304H16.6572L25.9234 29.2332C26.7843 31.7696 28.1821 32.7601 29.3602 32.7601ZM21.4308 19.8538L15.4135 1.23091L8.7278 19.8742L21.4308 19.8538Z" fill="white" stroke="white" stroke-width="0.473597"/>
<path d="M158.537 32.7807V32.9144H152.42V32.7807C153.598 32.7807 154.686 32.0123 153.825 29.4941L150.653 20.3141H137.828L135.166 27.7805C133.716 31.9692 135.075 32.7807 136.842 32.7807V32.9144H130.182V32.7807C131.994 32.7807 133.059 31.9896 134.554 27.7941L144.208 1.07017L145.877 1.04297L155.091 29.2742C155.961 31.7947 157.364 32.7807 158.537 32.7807ZM150.608 19.9786L144.588 1.49857L137.907 20.0013L150.608 19.9786Z" fill="white" stroke="white" stroke-width="0.473597"/>
<path d="M231.541 32.7602V32.8962H225.424V32.7602C226.602 32.7602 227.69 31.9895 226.829 29.4486L223.657 20.1984H210.832L208.163 27.7259C206.713 31.9442 208.072 32.7602 209.84 32.7602V32.8962H203.181V32.7602C204.994 32.7602 206.056 31.9646 207.551 27.7463L217.196 1.06323H218.8L228.107 29.2333C228.968 31.7696 230.363 32.7602 231.541 32.7602ZM223.612 19.8538L217.592 1.23098L210.913 19.8742L223.612 19.8538Z" fill="white" stroke="white" stroke-width="0.473597"/>
<path d="M283.186 32.7756V32.9138H277.069V32.7756C278.247 32.7756 279.334 32.0049 278.474 29.4595L275.302 20.1956H262.47L259.801 27.7323C258.351 31.9596 259.71 32.7756 261.477 32.7756V32.9138H254.819V32.7756C256.631 32.7756 257.694 31.98 259.189 27.7549L268.979 1.06958H270.546L279.751 29.2328C280.612 31.7828 282.01 32.7756 283.186 32.7756ZM275.256 19.8556L269.237 1.20332L262.56 19.8715L275.256 19.8556Z" fill="white" stroke="white" stroke-width="0.473597"/>
<path d="M88.9544 12.4946C91.7388 21.865 86.6504 29.7847 78.3063 32.2145C69.9079 34.6489 61.4189 30.7933 58.6458 21.4252C55.8615 12.0118 60.9363 4.36864 69.337 1.93198C77.6788 -0.497874 86.1655 3.08119 88.9544 12.4946ZM87.543 12.9819C84.9444 4.20771 76.0838 0.261456 68.9813 2.32865C61.8788 4.39584 57.325 12.4221 59.9304 21.1872C62.5177 29.9116 71.4372 33.8125 78.5351 31.7612C85.6331 29.7099 90.128 21.7131 87.5407 12.9819H87.543Z" fill="white" stroke="white" stroke-width="0.473597"/>
<path d="M126.7 1.15118V1.28718C125.522 1.28718 124.319 2.10091 124.319 4.64183L124.348 29.2328C124.348 31.7737 125.522 32.7642 126.7 32.7642V32.9002H120.583V32.7642C121.761 32.7642 122.848 31.9936 122.848 29.4527L123.172 1.79944L110.274 33H109.583L96.2166 2.13718L96.2437 27.8864C96.2437 32.1046 97.662 32.771 99.4269 32.771V32.907H92.7797V32.771C94.5922 32.771 95.7453 32.8957 95.7453 28.6911L95.7884 3.96637C95.7884 1.42545 94.7281 1.28944 93.5047 1.28944V1.15345H97.1749L110.413 31.4881L123.12 1.06958L126.7 1.15118Z" fill="white" stroke="white" stroke-width="0.473597"/>
<path d="M201.813 24.3398L203.339 25.8652C202.003 27.6604 198.04 32.9576 190.353 32.9576C181.715 32.9576 174.39 26.11 174.39 16.2342C174.39 6.35838 181.715 1 190.353 1C198.04 1 202.003 6.29717 203.339 8.09236L201.813 9.61557H201.717C200.428 5.80078 195.988 1.6596 190.353 1.5848C180.197 1.44427 176.198 7.54837 176.198 16.7487C176.198 25.9491 182.9 32.3071 190.211 32.4884C198.33 32.6788 200.437 28.1636 201.726 24.3488L201.813 24.3398Z" fill="white" stroke="white" stroke-width="0.473597"/>
<path d="M52.3915 30.0652C52.8391 31.3784 53.5404 32.1214 54.3026 32.53C54.3924 32.5781 54.4828 32.621 54.5731 32.6599H51.3905C51.5692 32.5139 51.7089 32.3196 51.788 32.072C51.9811 31.4672 51.7816 30.6427 51.1112 29.6394L46.9345 20.2312V20.2302L46.6278 19.5525L46.6259 19.5486L44.5292 15.1394C44.686 15.1126 44.8461 15.0762 44.9921 15.0437C45.2089 14.9954 45.3997 14.9578 45.5565 14.949L52.3915 30.0652Z" fill="white" stroke="white" stroke-width="0.473597"/>
<path d="M46.4466 1.59326C48.0483 1.90655 49.2719 2.53566 50.1507 3.34033C51.3675 4.45469 51.9389 5.92141 51.9339 7.40479L51.3694 7.45264C51.2341 5.76658 50.7569 4.29931 49.6311 3.20947C48.8718 2.47443 47.834 1.92786 46.4466 1.59326ZM35.9163 29.4702L35.7425 4.67236C35.7422 3.37894 35.4584 2.47121 34.9993 1.88135C34.8346 1.66981 34.6493 1.50271 34.4514 1.37451H38.4534L37.01 1.41162L36.7825 1.41748L36.7796 1.646L36.5823 20.0874V20.0923L36.6712 29.4624C36.6715 30.7521 36.9313 31.6375 37.3723 32.2026C37.5143 32.3845 37.6726 32.5303 37.8421 32.644H34.5501C34.735 32.5342 34.9133 32.3969 35.0745 32.2212C35.5864 31.6633 35.9163 30.7795 35.9163 29.4712V29.4702Z" fill="white" stroke="white" stroke-width="0.473597"/>
<path d="M51.7716 6.26099L51.8312 6.41626C51.8459 6.47038 51.8581 6.52509 51.8673 6.58032L51.8869 6.75317L51.8878 6.76099C51.9129 7.02798 51.9366 7.27953 51.9367 7.53149V7.53345C51.9398 7.92124 51.914 8.30889 51.8605 8.69263L51.798 9.07446L51.797 9.08032C51.6297 10.1016 51.1827 11.0565 50.507 11.8401C49.9035 12.5126 49.149 12.981 48.3693 13.3684L48.0334 13.5305C47.615 13.7251 47.2035 13.9096 46.7707 14.0676C47.1807 13.8753 47.5787 13.6614 47.9748 13.4309L47.9757 13.4319C48.7248 13.0111 49.4572 12.5207 50.0158 11.8938L50.2433 11.6165H50.2443C50.5325 11.2358 50.7604 10.8131 50.9211 10.3635L50.9201 10.3625C51.0477 10.0299 51.1487 9.68798 51.2189 9.33911L51.2794 8.98657C51.3296 8.631 51.3553 8.27214 51.3556 7.91333L51.3478 7.55493C51.3461 7.43922 51.3406 7.32362 51.3322 7.20825L51.2961 6.85474L51.2941 6.84302L51.2707 6.68774L51.2589 6.53149V6.39087C51.2599 6.39 51.2608 6.38889 51.2619 6.38794C51.2714 6.37967 51.2848 6.36947 51.3029 6.35669L51.7345 6.25317C51.752 6.2566 51.7641 6.25847 51.7716 6.26099Z" fill="white" stroke="white" stroke-width="0.473597"/>
<path d="M247.263 1.63623C247.197 1.68205 247.116 1.70145 247.037 1.69063H246.81L246.357 1.67703L245.451 1.64756C244.848 1.62943 244.248 1.6181 243.638 1.62717C242.444 1.62205 241.254 1.76595 240.095 2.05555C238.938 2.34954 237.877 2.93746 237.014 3.76235C236.178 4.60242 235.652 5.70255 235.525 6.88128C235.46 8.03719 235.763 9.18405 236.391 10.1566C236.694 10.6414 237.042 11.0967 237.431 11.5166C237.826 11.9349 238.243 12.3313 238.681 12.7043C240.448 14.189 242.576 15.1568 244.782 16.1496C245.883 16.6506 247.007 17.1583 248.095 17.7748C248.634 18.0851 249.155 18.4256 249.655 18.7948C249.907 18.983 250.154 19.1734 250.394 19.3774C250.634 19.5814 250.865 19.799 251.094 20.0233C251.207 20.1344 251.321 20.25 251.432 20.3679C251.543 20.4858 251.658 20.5945 251.767 20.7169C251.984 20.9554 252.187 21.2067 252.374 21.4695C252.749 21.9944 253.053 22.5658 253.28 23.1695C253.726 24.3686 253.848 25.664 253.634 26.9253C253.445 28.1605 252.903 29.3145 252.073 30.2482C251.658 30.6996 251.194 31.1026 250.689 31.4496C250.564 31.5402 250.439 31.6264 250.308 31.7034C250.177 31.7805 250.052 31.8689 249.916 31.9414C249.647 32.0908 249.367 32.2181 249.078 32.3222C247.92 32.7461 246.683 32.8436 245.473 32.873C244.263 32.9025 243.047 32.8345 241.848 32.8368V32.3834C243.06 32.4401 244.261 32.5602 245.473 32.5738C246.669 32.63 247.866 32.4813 249.012 32.1341C249.293 32.0386 249.567 31.9212 249.83 31.7828C249.961 31.717 250.088 31.6354 250.215 31.5561C250.342 31.4768 250.469 31.3974 250.589 31.3113C251.076 30.9665 251.513 30.557 251.889 30.0941C252.646 29.1812 253.103 28.0574 253.199 26.8755C253.235 26.294 253.201 25.7104 253.099 25.1369C252.986 24.574 252.792 24.0304 252.524 23.5231C252.254 23.0243 251.927 22.5588 251.55 22.1359C251.364 21.9235 251.167 21.7207 250.96 21.5284C250.858 21.4309 250.75 21.3403 250.646 21.2451C250.536 21.1538 250.42 21.0705 250.299 20.9957C249.341 20.3633 248.312 19.7808 247.295 19.2006C246.278 18.6203 245.215 18.1012 244.123 17.5867C243.031 17.0722 241.919 16.5531 240.838 15.9298C239.741 15.3053 238.729 14.5436 237.825 13.6631C236.908 12.7767 236.165 11.7266 235.634 10.5669C235.374 9.98811 235.187 9.37888 235.079 8.75354C235.031 8.43769 235.005 8.11879 235.002 7.79927C235.009 7.48278 235.036 7.16706 235.083 6.85408C235.312 5.6197 235.938 4.49411 236.866 3.64902C237.742 2.77817 238.824 2.14407 240.011 1.80623C241.192 1.47509 242.41 1.29833 243.636 1.28036C244.245 1.25996 244.853 1.25996 245.448 1.26676H247.034C247.114 1.25477 247.195 1.27428 247.261 1.32116L247.263 1.63623Z" fill="white" stroke="white" stroke-width="0.473597"/>
</svg>
