<svg width="205" height="24" viewBox="0 0 205 24" fill="none" xmlns="http://www.w3.org/2000/svg">
<path d="M169.957 23.3127C171.072 23.355 172.694 23.3957 174.507 23.368C174.67 23.4038 174.54 23.1711 174.538 23.067C171.17 22.8261 170.945 22.5576 169.957 21.7831L169.976 22.4031L169.957 23.3127Z" fill="#0E0E11" stroke="black" stroke-width="0.34"/>
<path d="M181.247 0.700356C180.097 0.726392 178.379 0.700356 176.578 0.700356C176.585 0.787532 176.585 0.875165 176.578 0.962341C179.944 1.20318 180.279 1.52374 181.262 2.29831V1.69298L181.247 0.700356Z" fill="#0E0E11" stroke="black" stroke-width="0.34"/>
<path d="M21.387 23.3144V23.412H16.9897V23.3144C17.8366 23.3144 18.6183 22.7611 17.9995 20.9369L15.7194 14.2961H6.49819L4.58295 19.7002C3.54064 22.7285 4.5178 23.3144 5.78649 23.3144V23.412H1V23.3144C2.30289 23.3144 3.06834 22.7432 4.14322 19.7149L11.1153 0.594597H12.2553L18.9164 20.7823C19.5352 22.6032 20.5401 23.3144 21.387 23.3144ZM15.6868 14.0488L11.3612 0.679217L6.5552 14.0634L15.6868 14.0488Z" fill="#0E0E11" stroke="black" stroke-width="0.34"/>
<path d="M114.247 23.329V23.425H109.85V23.329C110.696 23.329 111.478 22.7774 110.859 20.9695L108.579 14.3791H99.3597L97.4461 19.7393C96.4038 22.7465 97.381 23.329 98.6513 23.329V23.425H93.8632V23.329C95.166 23.329 95.9315 22.7611 97.0064 19.7491L103.946 0.563693L105.146 0.544167L111.77 20.8116C112.395 22.6212 113.403 23.329 114.247 23.329ZM108.547 14.1383L104.22 0.871247L99.4167 14.1545L108.547 14.1383Z" fill="#0E0E11" stroke="black" stroke-width="0.34"/>
<path d="M166.726 23.3144V23.412H162.329V23.3144C163.176 23.3144 163.958 22.7611 163.339 20.937L161.059 14.2961H151.839L149.921 19.7002C148.878 22.7286 149.856 23.3144 151.126 23.3144V23.412H146.339V23.3144C147.642 23.3144 148.406 22.7432 149.481 19.7149L156.414 0.558815H157.567L164.257 20.7824C164.876 22.6033 165.879 23.3144 166.726 23.3144ZM161.026 14.0488L156.699 0.67924L151.898 14.0634L161.026 14.0488Z" fill="#0E0E11" stroke="black" stroke-width="0.34"/>
<path d="M203.852 23.3257V23.4249H199.455V23.3257C200.302 23.3257 201.083 22.7724 200.464 20.945L198.184 14.2944H188.96L187.041 19.705C185.999 22.7399 186.976 23.3257 188.247 23.3257V23.4249H183.46V23.3257C184.763 23.3257 185.527 22.7545 186.602 19.7213L193.639 0.563606H194.766L201.383 20.7823C202.002 22.6129 203.007 23.3257 203.852 23.3257ZM198.152 14.0503L193.825 0.659619L189.025 14.0617L198.152 14.0503Z" fill="#0E0E11" stroke="black" stroke-width="0.34"/>
<path d="M64.2268 8.76501C66.2284 15.4921 62.5705 21.1777 56.5723 22.9221C50.5351 24.6698 44.4326 21.9019 42.4392 15.1764C40.4377 8.4184 44.0858 2.93129 50.1247 1.18199C56.1212 -0.562428 62.222 2.00702 64.2268 8.76501ZM63.2122 9.11487C61.3442 2.81576 54.9747 -0.0172968 49.869 1.46676C44.7633 2.95082 41.4897 8.71294 43.3626 15.0055C45.2225 21.2689 51.6344 24.0694 56.7368 22.5967C61.8393 21.124 65.0704 15.3831 63.2106 9.11487H63.2122Z" fill="#0E0E11" stroke="black" stroke-width="0.34"/>
<path d="M91.3604 0.622185V0.719827C90.5135 0.719827 89.6487 1.30401 89.6487 3.12816L89.6699 20.7823C89.6699 22.6064 90.5135 23.3175 91.3604 23.3175V23.4152H86.9631V23.3175C87.81 23.3175 88.5917 22.7643 88.5917 20.9401L88.8246 1.08758L79.5529 23.4868H79.0562L69.4474 1.33005L69.4669 19.8157C69.4669 22.844 70.4864 23.3224 71.7551 23.3224V23.4201H66.9768V23.3224C68.2797 23.3224 69.1086 23.4119 69.1086 20.3934L69.1396 2.64325C69.1396 0.81909 68.3774 0.721445 67.4979 0.721445V0.623814H70.1363L79.6523 22.4014L88.7872 0.563606L91.3604 0.622185Z" fill="#0E0E11" stroke="black" stroke-width="0.34"/>
<path d="M145.356 17.2691L146.454 18.3642C145.493 19.653 142.644 23.4559 137.118 23.4559C130.908 23.4559 125.643 18.54 125.643 11.45C125.643 4.36006 130.908 0.513222 137.118 0.513222C142.644 0.513222 145.493 4.31612 146.454 5.6049L145.356 6.69843H145.287C144.361 3.95975 141.169 0.986756 137.118 0.933057C129.817 0.832167 126.943 5.21436 126.943 11.8194C126.943 18.4244 131.76 22.9889 137.016 23.1191C142.853 23.2558 144.367 20.0143 145.294 17.2756L145.356 17.2691Z" fill="#0E0E11" stroke="black" stroke-width="0.34"/>
<path d="M37.9476 21.3879C38.2694 22.3253 38.7715 22.8572 39.3177 23.1496C39.3821 23.1841 39.4472 23.2145 39.512 23.2424H37.222C37.3509 23.1374 37.4521 22.9978 37.5091 22.8195C37.6477 22.3854 37.5043 21.7942 37.0228 21.0744L34.0208 14.3195L34.0198 14.3185L33.8001 13.8322L33.7991 13.8293L32.2903 10.6642C32.4034 10.645 32.519 10.6193 32.6243 10.5959C32.7805 10.5611 32.9176 10.5338 33.0306 10.5275L37.9476 21.3879Z" fill="#0E0E11" stroke="black" stroke-width="0.34"/>
<path d="M33.6568 0.935715C34.815 1.15976 35.6993 1.61348 36.3335 2.19353C37.2082 2.99358 37.6194 4.04663 37.6158 5.1115L37.2066 5.14568C37.1093 3.93526 36.7687 2.88116 35.9595 2.0988C35.4113 1.56884 34.6607 1.17561 33.6568 0.935715ZM26.1001 20.9523L25.9751 3.14958C25.9749 2.22098 25.771 1.56913 25.441 1.14568C25.3225 0.993715 25.1888 0.874439 25.0464 0.782394H27.9175L26.8873 0.808762L26.7232 0.812668L26.7212 0.97673L26.5796 14.216V14.2199L26.6431 20.9465C26.6433 21.8725 26.8299 22.5085 27.147 22.9142C27.25 23.046 27.3667 23.1487 27.4898 23.2306H25.1177C25.2507 23.1518 25.3787 23.0531 25.4947 22.9269C25.8626 22.5264 26.1001 21.8925 26.1001 20.9533V20.9523Z" fill="#0E0E11" stroke="black" stroke-width="0.34"/>
<path d="M37.4977 4.29079C37.5137 4.32515 37.5283 4.36012 37.5397 4.39626V4.39723C37.5508 4.4375 37.5602 4.47817 37.5671 4.5193L37.5817 4.6443V4.64919C37.5998 4.84101 37.6169 5.02189 37.6169 5.2029V5.20387C37.6191 5.48212 37.6016 5.76057 37.5632 6.0359L37.5173 6.31032V6.31422C37.3972 7.04631 37.077 7.73163 36.5925 8.29372C36.2202 8.70886 35.7671 9.01561 35.2917 9.27028L34.8112 9.50954C34.509 9.64994 34.2119 9.78344 33.8991 9.89723C34.1951 9.75876 34.4824 9.6044 34.7682 9.43825L34.7692 9.43922C35.3077 9.13714 35.8345 8.78475 36.236 8.33473L36.4001 8.13551C36.6073 7.86223 36.7718 7.55896 36.8874 7.2361L36.8864 7.23512C36.9781 6.99653 37.0498 6.751 37.1003 6.50075L37.1442 6.24782V6.24684C37.1803 5.9918 37.1987 5.73468 37.1989 5.47731L37.193 5.2195C37.1918 5.13638 37.1884 5.05334 37.1823 4.97047L37.1559 4.71657L37.155 4.70876L37.1384 4.59743L37.1296 4.48512V4.38356L37.1315 4.38161C37.1382 4.37575 37.1481 4.36911 37.1608 4.36012L37.4694 4.28493C37.4828 4.28745 37.492 4.28889 37.4977 4.29079Z" fill="#0E0E11" stroke="black" stroke-width="0.34"/>
<path d="M178.029 0.970442C177.981 1.00333 177.923 1.01726 177.866 1.00949H177.703L177.377 0.999731L176.726 0.978576C176.293 0.965558 175.861 0.957427 175.423 0.963936C174.564 0.960262 173.709 1.06357 172.876 1.27148C172.044 1.48254 171.281 1.90461 170.661 2.49681C170.06 3.0999 169.682 3.88969 169.591 4.73592C169.544 5.56576 169.762 6.3891 170.213 7.0873C170.431 7.43533 170.681 7.7622 170.96 8.06366C171.244 8.36393 171.545 8.64858 171.859 8.91634C173.13 9.98219 174.659 10.677 176.245 11.3898C177.037 11.7494 177.845 12.1139 178.626 12.5565C179.014 12.7792 179.389 13.0237 179.748 13.2888C179.929 13.4238 180.107 13.5605 180.279 13.707C180.452 13.8534 180.618 14.0097 180.783 14.1707C180.864 14.2505 180.945 14.3335 181.025 14.4181C181.105 14.5027 181.188 14.5808 181.266 14.6687C181.422 14.8399 181.568 15.0203 181.703 15.2089C181.972 15.5858 182.191 15.996 182.354 16.4294C182.674 17.2903 182.762 18.2203 182.608 19.1257C182.472 20.0125 182.083 20.841 181.486 21.5113C181.188 21.8353 180.854 22.1247 180.491 22.3738C180.402 22.4388 180.312 22.5007 180.217 22.556C180.123 22.6113 180.033 22.6748 179.936 22.7269C179.743 22.8341 179.541 22.9255 179.333 23.0002C178.501 23.3045 177.612 23.3745 176.742 23.3957C175.872 23.4168 174.998 23.368 174.136 23.3696V23.0442C175.008 23.0849 175.871 23.1711 176.742 23.1809C177.602 23.2212 178.462 23.1145 179.286 22.8652C179.488 22.7966 179.685 22.7123 179.874 22.613C179.968 22.5658 180.06 22.5072 180.151 22.4502C180.242 22.3933 180.333 22.3363 180.419 22.2745C180.769 22.0269 181.084 21.733 181.354 21.4007C181.898 20.7453 182.227 19.9385 182.296 19.0899C182.321 18.6725 182.297 18.2535 182.224 17.8418C182.143 17.4377 182.003 17.0474 181.81 16.6832C181.616 16.3252 181.381 15.9909 181.11 15.6874C180.976 15.5349 180.835 15.3893 180.687 15.2512C180.613 15.1813 180.535 15.1162 180.46 15.0478C180.381 14.9823 180.298 14.9225 180.211 14.8688C179.522 14.4148 178.783 13.9966 178.051 13.5801C177.32 13.1635 176.556 12.7908 175.771 12.4214C174.986 12.0521 174.187 11.6794 173.41 11.2319C172.622 10.7836 171.894 10.2368 171.244 9.60467C170.585 8.96829 170.051 8.21439 169.669 7.38184C169.482 6.96635 169.348 6.52898 169.27 6.08003C169.235 5.85328 169.217 5.62434 169.215 5.39495C169.219 5.16774 169.239 4.94108 169.273 4.71639C169.438 3.83022 169.888 3.02214 170.555 2.41545C171.184 1.79025 171.962 1.33503 172.815 1.09249C173.664 0.854758 174.54 0.72786 175.421 0.714961C175.859 0.700316 176.296 0.700316 176.724 0.705198H177.864C177.921 0.696591 177.98 0.710595 178.027 0.744251L178.029 0.970442Z" fill="#0E0E11" stroke="black" stroke-width="0.34"/>
</svg>
