<svg width="22" height="20" viewBox="0 0 22 20" fill="none" xmlns="http://www.w3.org/2000/svg">
<path d="M15.5784 1.52187C14.6349 1.52199 13.7095 1.78042 12.9024 2.26913C12.0954 2.75784 11.4375 3.45819 11.0002 4.29421C10.4629 3.27157 9.59866 2.45826 8.5453 1.98397C7.49195 1.50968 6.31012 1.40173 5.18826 1.67731C4.06641 1.9529 3.06912 2.59616 2.35541 3.50453C1.64171 4.4129 1.25268 5.53407 1.25037 6.68928C1.25037 9.54217 3.02229 12.1492 5.31139 14.2899C7.07735 15.8548 8.9814 17.2566 11.0002 18.4781C13.0039 17.2341 14.9061 15.8337 16.689 14.2899C19.2325 11.9669 20.75 9.54217 20.75 6.68928C20.75 6.01033 20.6162 5.33804 20.3563 4.71082C20.0963 4.0836 19.7153 3.51376 19.235 3.03387C18.7548 2.55397 18.1846 2.17343 17.5572 1.914C16.9297 1.65456 16.2573 1.52131 15.5784 1.52187Z" stroke="black" stroke-width="1.125" stroke-miterlimit="10"/>
</svg>
