<svg width="24" height="24" viewBox="0 0 24 24" fill="none" xmlns="http://www.w3.org/2000/svg">
<path d="M12 21C16.9706 21 21 16.9706 21 12C21 7.02944 16.9706 3 12 3C7.02944 3 3 7.02944 3 12C3 16.9706 7.02944 21 12 21Z" stroke="black" stroke-width="1.125" stroke-miterlimit="10"/>
<path d="M14.2494 8.22684C14.2815 7.00581 13.3175 6.00971 12.0965 5.97758C12.0644 5.97758 12.0322 5.97758 12.0001 5.97758C10.7791 5.94545 9.78299 6.90942 9.75085 8.13045C9.75085 8.16258 9.75085 8.19471 9.75085 8.22684C9.75085 8.4839 10.0079 9.73706 10.0079 9.73706C10.2007 10.8296 10.9076 11.7614 12.0001 11.7614C13.0926 11.7614 13.7995 10.8617 13.9923 9.73706C13.9923 9.73706 14.2494 8.4839 14.2494 8.22684Z" stroke="black" stroke-width="1.125" stroke-miterlimit="10"/>
<path d="M5.3479 18.0652V17.7913C5.3479 16.5782 6.2479 15.6782 7.46094 15.3652L12.0001 14.5435L16.5783 15.4043C17.7522 15.7565 18.6522 16.5782 18.6522 17.8304V18.1043" stroke="black" stroke-width="1.125" stroke-miterlimit="10"/>
</svg>
